<?xml version="1.0" encoding="utf-8"?>
<!-- Generator: Adobe Illustrator 16.0.0, SVG Export Plug-In . SVG Version: 6.00 Build 0)  -->
<!DOCTYPE svg PUBLIC "-//W3C//DTD SVG 1.1//EN" "http://www.w3.org/Graphics/SVG/1.1/DTD/svg11.dtd">
<svg version="1.1" id="logo" xmlns="http://www.w3.org/2000/svg" xmlns:xlink="http://www.w3.org/1999/xlink" x="0px" y="0px"
	 width="521px" height="42px" viewBox="-9.8 -4.5 521 42" enable-background="new -9.8 -4.5 521 42" xml:space="preserve">
<g>
	<path d="M16.5,12.7c0-3.5-1.1-5.4-4.899-5.4C8.7,7.3,6.8,9.1,6,11.3l0,0V7.4H5.9L0,9.1c0.7,0.8,1.4,2.4,1.4,4.2v6.5
		c0,2.101-0.101,4.3-0.7,6h6c-0.5-1.6-0.6-3.5-0.6-5.8v-8c0.8-0.7,1.8-1.1,3.199-1.1c1.801,0,2.4,0.8,2.4,2.4V20
		c0,2.3-0.1,4.2-0.6,5.8h6c-0.5-1.7-0.7-3.899-0.7-6v-7.1H16.5z"/>
	<path d="M32,20.9v-8c0-3.8-1.7-5.6-6.399-5.6C22,7.3,18.5,9,18.5,11.6c0,1.3,0.9,2,2,2c1.2,0,1.9-0.6,2.2-2.4
		c0.3-1.2,0.7-1.7,1.9-1.7c1.899,0,2.5,1,2.5,3.1V13c0,1.8-1.4,2.6-4,3.6C20.4,17.7,17.8,18.9,17.8,21.8c0,2.7,1.9,4.5,4.801,4.5
		c2.399,0,3.899-1,4.6-3.3h0.1c0.101,1.7,1.2,3.3,3.5,3.3c2,0,2.9-1,3.5-2.5c0.101-0.3,0.2-0.6,0.301-1.2
		c-0.2,0.2-0.801,0.301-1,0.301C32.6,22.8,32,22.3,32,20.9z M27.2,22.3c-0.4,0.7-0.8,1.2-2.2,1.2c-1.399,0-2.3-1-2.3-2.6
		c0-1.9,0.6-2.801,2.3-3.7c1.3-0.601,1.8-1,2.2-1.5V22.3z"/>
	<path d="M40.4,20.1V10.2h4.1L45,7.7h-4.6V3.5H40.3l-6.5,6.6v0.1H35.6v10.6c0,3.4,1.399,5.3,5.1,5.3c2.2,0,3.7-0.899,4.3-2.399
		c0.2-0.5,0.3-0.9,0.4-1.5c-0.601,0.3-1.3,0.5-2.601,0.5C41.2,22.7,40.4,22,40.4,20.1z"/>
	<path d="M62,7.6l-5.6,0.6c0.6,1.6,0.8,3.2,0.8,5V21.6c-0.7,0.9-1.8,1.4-3.3,1.4c-1.8,0-2.5-1-2.5-2.9V7.6L45.8,8.2
		c0.601,1.6,0.801,3.2,0.801,5v7.1c0,3.5,1.399,5.9,5.399,5.9c3.101,0,4.601-1.7,5.4-4h0.1v3.6h5.4c-0.4-1.3-0.7-2.6-0.7-5.399V7.6
		H62z"/>
	<path d="M74,7.3c-2,0-3.6,1.3-4.399,4.6H69.5V7.4h-0.1l-5.9,1.7c0.7,0.8,1.4,2.4,1.4,4.2v6.5c0,2.101-0.101,4.3-0.7,6h6
		c-0.4-1.7-0.6-3.899-0.6-6.1v-4.5c0-2.8,1.1-4.4,2-4.4c0.399,0,0.699,0.4,1.1,0.8s0.9,0.7,1.7,0.7c1.5,0,2.2-1.1,2.2-2.5
		C76.8,8.3,75.8,7.3,74,7.3z"/>
	<path d="M91.6,15.8c0-5.6-2.2-8.5-6.801-8.5c-4.899,0-8.5,4-8.5,9.9c0,5.899,3.801,8.899,8.4,8.899c4,0,6.2-2.5,6.9-5.199
		L91.5,20.6c-0.8,0.801-2.1,2-5,2c-3.2,0-5.5-1.8-5.5-6.3v-0.5H91.6z M84.6,9.5c2,0,2.399,1.7,2.5,4.6l-6,0.5
		C81.4,11.1,82.6,9.5,84.6,9.5z"/>
	<path d="M107.3,7.3c-2,0-3.6,1.3-4.399,4.6H102.8V7.4h-0.1L97,9.1c0.7,0.8,1.4,2.4,1.4,4.2v6.5c0,2.101-0.101,4.3-0.7,6h6
		c-0.4-1.7-0.6-3.899-0.6-6.1v-4.5c0-2.8,1.1-4.4,2-4.4c0.399,0,0.699,0.4,1.1,0.8s0.9,0.7,1.7,0.7c1.5,0,2.2-1.1,2.2-2.5
		C110.1,8.3,109.2,7.3,107.3,7.3z"/>
	<path d="M125,15.8c0-5.6-2.2-8.5-6.8-8.5c-4.9,0-8.5,4-8.5,9.9c0,5.899,3.8,8.899,8.4,8.899c4,0,6.199-2.5,6.899-5.199l-0.1-0.301
		c-0.8,0.801-2.101,2-5,2c-3.2,0-5.5-1.8-5.5-6.3v-0.5H125z M118,9.5c2,0,2.4,1.7,2.5,4.6l-6,0.5C114.7,11.1,115.9,9.5,118,9.5z"/>
	<path d="M137.3,7.7c0.601,1.3,0.301,3.1-0.5,5.1l-2.3,6l0,0l-2.3-6.1c-0.8-2.1-1.1-3.6-1-5h-6.6c1,1.5,1.6,3.1,2.6,5.4l5.2,12.8
		h1.6l5.101-12.8C140,11,141,9,141.8,7.7H137.3z"/>
	<path d="M147.6,11.9l0.1-4.5h-0.1L141.3,9.1c0.7,0.8,1.4,2.4,1.4,4.2v6.5c0,2.101-0.1,4.3-0.7,6h6.2c-0.5-1.7-0.7-3.899-0.7-6v-7.9
		H147.6z"/>
	<path d="M145,6.3c1.7,0,2.9-1.3,2.9-2.9s-1.2-2.9-2.9-2.9S142.1,1.8,142.1,3.4S143.3,6.3,145,6.3z"/>
	<path d="M165,15.8c0-5.6-2.2-8.5-6.8-8.5c-4.9,0-8.5,4-8.5,9.9c0,5.899,3.8,8.899,8.4,8.899c4,0,6.199-2.5,6.899-5.199l-0.1-0.301
		c-0.8,0.801-2.101,2-5,2c-3.2,0-5.5-1.8-5.5-6.3v-0.5H165z M158,9.5c2,0,2.4,1.7,2.5,4.6l-6,0.5C154.8,11.1,156,9.5,158,9.5z"/>
	<path d="M185.2,7.7c0.4,1.3,0.3,3.2-0.4,5.3l-1.8,5.5h-0.1l-3.7-10.8h-1.9L173.6,18.5H173.5l-1.8-5.9c-0.6-2.1-0.7-3.6-0.6-4.9H165
		c0.7,1.5,1.3,3.2,2.101,5.7l4.1,12.6h1.9l4-11.4h0.1l3.9,11.4H183l4.101-12.5c0.8-2.3,1.5-4.3,2.199-5.7h-4.1V7.7z"/>
	<path d="M196.8,14.4c-2.899-1.2-3.6-1.8-3.6-3.1c0-1.3,0.9-1.8,2.4-1.8c2.1,0,3.5,1.1,4.8,2.5h0.1l-0.2-3.8
		c-1.1-0.5-2.5-0.9-4.8-0.9c-3.6,0-6.3,2.1-6.3,5.5c0,3,2,4.4,4.9,5.7c2.8,1.2,3.6,1.6,3.6,3.2c0,1.399-0.5,2.2-2.7,2.2
		s-4.3-1.801-5.7-3.7H189.1l0.199,4.6c1.5,0.8,3.601,1.3,5.7,1.3c5.101,0,6.7-3,6.7-6.1C201.8,17.1,199.9,15.6,196.8,14.4z"/>
	<path d="M216.2,8.1c-4.7,0-8,3.6-8,8.9v0.3c0,5.2,3.2,8.8,8.3,8.8c3.7,0,6.5-1.8,7.2-5.1h-1.8c-0.601,2.4-2.601,3.6-5.5,3.6
		c-4.101,0-6.4-2.699-6.4-7.3h13.8v-0.6C223.8,10.8,220.4,8.1,216.2,8.1z M210.1,15.8c0.3-3.8,2.699-6.2,6.1-6.2s5.6,2,5.8,6.2
		H210.1z"/>
	<rect x="226.7" width="1.8" height="25.7"/>
	<path d="M239.4,8.1c-4.7,0-8,3.6-8,8.9v0.3c0,5.2,3.2,8.8,8.3,8.8c3.7,0,6.5-1.8,7.2-5.1h-1.8c-0.601,2.4-2.601,3.6-5.5,3.6
		c-4.101,0-6.4-2.699-6.4-7.3H247v-0.6C247,10.8,243.5,8.1,239.4,8.1z M233.3,15.8C233.6,12,236,9.6,239.4,9.6
		c3.399,0,5.6,2,5.8,6.2H233.3z"/>
	<path d="M256.8,24.5c-3.699,0-6.5-2.7-6.5-7.3v-0.3c0-4.601,2.9-7.4,6.5-7.4c2.7,0,5.101,1.4,5.5,4.3h1.7c-0.5-3.9-3.7-5.8-7.3-5.8
		c-4.6,0-8.3,3.6-8.3,8.9v0.3c0,5.3,3.6,8.8,8.3,8.8c4,0,7-2.6,7.4-6.3H262.5C262.2,22.8,259.7,24.5,256.8,24.5z"/>
	<path d="M269.4,21.4V9.8h4.6V8.3h-4.6v-4h-1.8v4H265v1.5h2.601v11.7c0,2.8,1.5,4.4,4.3,4.4c1.1,0,1.7-0.2,2.3-0.4V24
		c-0.6,0.2-1.3,0.4-2.2,0.4C270.4,24.5,269.4,23.5,269.4,21.4z"/>
	<path d="M278.6,12V8.3H276.8v17.4h1.801V16c0-4.6,2.5-6.2,5.899-6.3V8.1C281.3,8.2,279.6,9.9,278.6,12z"/>
	<rect x="287.2" y="8.3" width="1.8" height="17.4"/>
	<path d="M288.1,2.1c-0.7,0-1.301,0.6-1.301,1.2c0,0.7,0.601,1.3,1.301,1.3c0.699,0,1.199-0.6,1.199-1.3
		C289.3,2.7,288.8,2.1,288.1,2.1z"/>
	<path d="M300.2,24.5c-3.7,0-6.5-2.7-6.5-7.3v-0.3c0-4.601,2.9-7.4,6.5-7.4c2.7,0,5.1,1.4,5.5,4.3h1.7c-0.5-3.9-3.7-5.8-7.3-5.8
		c-4.601,0-8.3,3.6-8.3,8.9v0.3c0,5.3,3.6,8.8,8.3,8.8c4,0,7-2.6,7.399-6.3H306C305.5,22.8,303.1,24.5,300.2,24.5z"/>
	<path d="M316.5,8.1c-3.3,0-6.3,1.5-6.7,5.2h1.7c0.4-2.6,2.3-3.7,4.9-3.7c3.1,0,4.399,1.4,4.399,4.7v1.6h-3.6
		c-4.3,0-8.2,1.2-8.2,5.3c0,3.3,2.5,5,5.9,5c2.899,0,4.8-1.2,5.899-2.9V26h1.801V14.2C322.6,9.8,320.2,8.1,316.5,8.1z M320.9,20.1
		c0,2.601-2.601,4.5-5.8,4.5c-2.9,0-4.301-1.3-4.301-3.5c0-3.1,2.801-3.899,6.501-3.899h3.6V20.1z"/>
	<rect x="326.7" width="1.8" height="25.7"/>
	<path d="M346.3,8.1c-4.699,0-8,3.6-8,8.9v0.3c0,5.2,3.2,8.8,8.301,8.8c3.699,0,6.5-1.8,7.199-5.1H352c-0.6,2.4-2.6,3.6-5.5,3.6
		c-4.1,0-6.399-2.699-6.399-7.3h13.8v-0.6C353.9,10.8,350.5,8.1,346.3,8.1z M340.2,15.8c0.3-3.8,2.7-6.2,6.101-6.2
		c3.399,0,5.6,2,5.8,6.2H340.2z"/>
	<path d="M364.6,8.1c-3.101,0-5.4,1.8-6.2,3.7V8.3h-1.8v17.4h1.8V15.2c0-3.7,2.899-5.6,5.8-5.6c3.1,0,4.8,1.6,4.8,5.3v10.8h1.8V15
		C370.8,10.1,368.3,8.1,364.6,8.1z"/>
	<path d="M387.9,12.1c-1-2.1-2.9-4-6.4-4c-4.6,0-8.1,3.6-8.1,8.6v0.2c0,5.1,3.399,8.3,7.899,8.3c3.2,0,5.7-2.101,6.601-4.2v3.6
		c0,4.301-2.601,6-6.3,6c-3.601,0-5.5-1.5-6-3.8h-1.8c0.399,2.8,2.8,5.3,7.8,5.3c4.7,0,8-2.3,8.1-7.399V8.3h-1.8V12.1z M387.9,16.7
		c0,4.399-2.9,6.899-6.5,6.899c-3.5,0-6.2-2.5-6.2-6.899v-0.3c0-4.3,2.7-7,6.4-7c3.6,0,6.199,2.5,6.199,6.9v0.4H387.9z"/>
	<rect x="393.9" y="8.3" width="1.8" height="17.4"/>
	<path d="M394.7,2.1c-0.7,0-1.3,0.6-1.3,1.2c0,0.7,0.6,1.3,1.3,1.3S396,4,396,3.3C396,2.7,395.4,2.1,394.7,2.1z"/>
	<path d="M407.801,8.1c-3.101,0-5.4,1.8-6.2,3.7V8.3h-1.8v17.4h1.8V15.2c0-3.7,2.9-5.6,5.8-5.6c3.101,0,4.8,1.6,4.8,5.3v10.8h1.8V15
		C413.9,10.1,411.501,8.1,407.801,8.1z"/>
	<path d="M424.6,8.1c-4.7,0-8,3.6-8,8.9v0.3c0,5.2,3.2,8.8,8.3,8.8c3.7,0,6.5-1.8,7.2-5.1h-1.8c-0.601,2.4-2.601,3.6-5.5,3.6
		c-4.101,0-6.4-2.699-6.4-7.3h13.8v-0.6C432.2,10.8,428.801,8.1,424.6,8.1z M418.501,15.8c0.3-3.8,2.699-6.2,6.1-6.2s5.6,2,5.8,6.2
		H418.501z"/>
	<path d="M441.7,8.1c-4.699,0-8,3.6-8,8.9v0.3c0,5.2,3.2,8.8,8.301,8.8c3.699,0,6.5-1.8,7.199-5.1h-1.8c-0.6,2.4-2.6,3.6-5.5,3.6
		c-4.1,0-6.399-2.699-6.399-7.3h13.8v-0.6C449.301,10.8,445.9,8.1,441.7,8.1z M435.6,15.8c0.3-3.8,2.7-6.2,6.1-6.2
		c3.4,0,5.601,2,5.801,6.2H435.6z"/>
	<path d="M453.9,12V8.3h-1.8v17.4h1.8V16c0-4.6,2.5-6.2,5.9-6.3V8.1C456.6,8.2,454.9,9.9,453.9,12z"/>
	<path d="M463.301,2.1c-0.7,0-1.3,0.6-1.3,1.2c0,0.7,0.6,1.3,1.3,1.3s1.2-0.6,1.2-1.3C464.6,2.7,464.001,2.1,463.301,2.1z"/>
	<rect x="462.501" y="8.3" width="1.8" height="17.4"/>
	<path d="M476.301,8.1c-3.101,0-5.4,1.8-6.2,3.7V8.3h-1.8v17.4h1.8V15.2c0-3.7,2.9-5.6,5.8-5.6c3.101,0,4.8,1.6,4.8,5.3v10.8h1.8V15
		C482.501,10.1,480.001,8.1,476.301,8.1z"/>
	<path d="M499.6,8.3v3.8c-1-2.1-2.9-4-6.4-4c-4.6,0-8.1,3.6-8.1,8.6v0.2c0,5.1,3.4,8.3,7.9,8.3c3.199,0,5.699-2.101,6.6-4.2v3.6
		c0,4.301-2.6,6-6.3,6c-3.601,0-5.5-1.5-6-3.8h-1.8c0.399,2.8,2.8,5.3,7.8,5.3c4.7,0,8-2.3,8.1-7.399V8.3H499.6z M499.7,16.7
		c0,4.399-2.899,6.899-6.5,6.899c-3.5,0-6.199-2.5-6.199-6.899v-0.3c0-4.3,2.699-7,6.399-7c3.601,0,6.2,2.5,6.2,6.9v0.4H499.7z"/>
</g>
</svg>
